# xmcd CD database file
#
# Track frame offsets:
#	150
#	12979
#	24465
#
# Disc length: 527 seconds
#
# Revision: 0
# Processed by: cddbd v1.5.1PL0 Copyright (c) Steve Scherf et al.
# Submitted via: CDex 1.60beta1
#
DISCID=18020d03
DTITLE=myheadswims - Young Democratica
DYEAR=1900
DGENRE=Punk Rock
TTITLE0=Young Team(at a hooter)
TTITLE1=Dance of dance
TTITLE2=日曜貴族
EXTD=
EXTT0=
EXTT1=
EXTT2=
PLAYORDER=
